<svg id="Layer_1" data-name="Layer 1" xmlns="http://www.w3.org/2000/svg" viewBox="0 0 496.01 81.13"><defs><style>.cls-1,.cls-3{fill:#34495e;}.cls-2{fill:#63b7af;}.cls-3{fill-rule:evenodd;}</style></defs><path class="cls-1" d="M106.88,35.86V29.29h-6.8V68.42h7.09V48.93c0-8.57,4.73-13.22,12.33-13.22a13.25,13.25,0,0,1,1.63.07V28.92c-6.87,0-11.74,2.36-14.25,6.94Zm58,13.22c0-12-8-20.16-19.34-20.16s-19.64,8.34-19.64,19.93,8.41,20,21,20c6.5,0,11.89-2.22,15.43-6.35l-3.91-4.58a14.63,14.63,0,0,1-11.3,4.72c-7.75,0-13.29-4.57-14.18-11.44H164.7c.07-.67.14-1.55.14-2.14ZM145.5,34.9a12.21,12.21,0,0,1,12.55,11.22H132.94A12.2,12.2,0,0,1,145.5,34.9Zm42.31-6c-6.28,0-12.11,1.77-16.17,5l3,5.32A19.78,19.78,0,0,1,187,35.05c7,0,10.48,3.47,10.48,9.45v1.4H186.26c-11.67,0-15.73,5.17-15.73,11.45,0,6.79,5.61,11.52,14.47,11.52,6.13,0,10.49-2.07,12.85-5.62v5.17h6.72V44.79c0-10.7-6-15.87-16.76-15.87ZM186.18,63.4c-5.39,0-8.64-2.44-8.64-6.35,0-3.32,2-6,9-6h10.93v5.46c-1.77,4.5-6,6.94-11.3,6.94Zm31.54,5h7.08V13.63h-7.08V68.42Z" transform="translate(-1.94 -1.62)"/><path class="cls-2" d="M276.34,68.42H288.9L265.79,16.73H254l-23,51.69h12.26l4.58-11.07h24l4.57,11.07ZM251.61,48.26l8.19-19.79L268,48.26ZM317,28.1c-5.32,0-9.6,1.7-12.48,5.17V28.7h-11V82.75H305V64.21c2.95,3.25,7,4.8,12,4.8,11.15,0,19.79-8,19.79-20.45S328.11,28.1,317,28.1Zm-2,31.46c-5.75,0-10.11-4.13-10.11-11s4.36-11,10.11-11,10.12,4.13,10.12,11-4.36,11-10.12,11Zm53-31.46c-5.31,0-9.6,1.7-12.48,5.17V28.7h-11V82.75H356V64.21c2.95,3.25,7,4.8,12,4.8,11.15,0,19.79-8,19.79-20.45S379.06,28.1,367.91,28.1Zm-2,31.46c-5.76,0-10.12-4.13-10.12-11s4.36-11,10.12-11S376,41.69,376,48.56s-4.35,11-10.11,11ZM434.3,48.71c0-12.78-9-20.61-20.68-20.61-12.11,0-21.19,8.57-21.19,20.46S401.36,69,415.1,69c7.16,0,12.7-2.21,16.39-6.42l-6.13-6.65a13.44,13.44,0,0,1-10,3.84c-6.05,0-10.26-3-11.37-8h30.06c.07-1,.22-2.22.22-3.1ZM413.7,36.82a9.43,9.43,0,0,1,9.74,8.27H403.87c.82-5.1,4.58-8.27,9.83-8.27Zm43.19-8.72c-6.35,0-12.77,1.7-17.13,4.8L443.9,41a19.08,19.08,0,0,1,11.44-3.69c6.21,0,9.16,2.88,9.16,7.83h-9.16c-12.11,0-17.06,4.87-17.06,11.89s5.54,12,14.85,12c5.83,0,10-1.92,12.11-5.53v4.94H476V45.75c0-12-7-17.65-19.13-17.65ZM456,61.26c-4.06,0-6.5-1.92-6.5-4.8,0-2.66,1.7-4.65,7.09-4.65h7.9v4.06c-1.33,3.62-4.65,5.39-8.49,5.39Zm30.42,7.16H498V13.63H486.43V68.42Z" transform="translate(-1.94 -1.62)"/><path class="cls-1" d="M1.94,68.47V9.52H14.49v7.14l19.12-15H48.12a1.93,1.93,0,0,1,1.2,3.46L14.49,32.55V68.47Z" transform="translate(-1.94 -1.62)"/><path class="cls-2" d="M29.34,68.47V26.53L56.75,4.72l1.49-1.19a3.84,3.84,0,0,1,4.81,0l1.49,1.19,25,19.92L92,26.53V68.47H79.4V32.55L60.64,17.62,41.89,32.55V68.47Z" transform="translate(-1.94 -1.62)"/><path class="cls-3" d="M52.27,39.32h7v7h-7v-7Zm9.75,0h7v7H62v-7Zm7,9.75v7H62v-7Zm-9.75,7h-7v-7h7v7Z" transform="translate(-1.94 -1.62)"/></svg>